<svg width="212" height="100" viewBox="0 0 212 100" fill="none" xmlns="http://www.w3.org/2000/svg">
<g clip-path="url(#clip0)">
<path fill-rule="evenodd" clip-rule="evenodd" d="M209.694 71.3878C210.047 71.0294 210.031 71.0294 210.304 70.7036C210.698 70.2394 210.465 70.4023 210.979 70.1335C211.116 69.5797 211.518 69.5064 211.944 68.8466C208.553 67.2503 205.161 65.6458 201.77 64.0494C200.461 67.0467 200.091 67.6657 199.183 70.9724C198.492 73.5054 198.018 76.2501 197.809 78.9542C197.568 82.0898 197.656 85.3721 197.961 88.1169C198.122 89.5666 198.894 94.9828 199.52 95.8543C199.826 95.7077 200.123 95.5692 200.428 95.4226C201.931 85.9015 202.614 78.5795 209.694 71.3878ZM192.328 72.5117C193.702 73.2122 194.835 71.8683 194.072 70.8909C193.445 70.0846 191.806 70.614 192.328 72.5117ZM193.011 78.2619C193.317 77.7976 193.325 76.8691 192.867 76.5596C192.312 76.185 191.653 76.5759 191.42 76.9587C190.44 78.5062 192.312 79.3207 193.011 78.2619ZM190.898 84.6798C191.235 86.0726 193.172 85.6491 192.851 83.8735C192.577 82.3342 190.448 82.8147 190.898 84.6798ZM191.46 90.9512C191.693 92.4906 193.67 92.3765 193.534 90.6499C193.381 88.8662 191.171 89.0535 191.46 90.9512ZM200.059 62.3228C199.448 63.292 198.837 64.2693 198.227 65.2386C197.029 63.6259 196.459 63.3083 196.194 63.5282C195.8 63.8621 195.277 64.2042 194.627 63.349C193.614 63.6422 192.61 63.9273 191.597 64.2205C191.726 63.3653 191.854 62.5101 191.983 61.6549C192.738 61.9074 193.855 62.4531 194.635 62.7137C195.004 62.4042 195.446 62.0947 196.009 62.5508C196.684 63.0884 195.285 63.7807 200.059 62.3228ZM196.202 53.2333C196.652 53.7139 196.917 54.3003 197.302 54.7483C200.573 58.4948 207.444 55.4894 207.91 50.904C206.536 52.1583 203.715 55.2614 201.907 54.3899C200.171 53.5591 200.597 48.2081 196.869 51.4415C192.063 46.7909 191.525 58.7636 187.828 53.3555C187.595 53.9256 189.548 56.1654 192.047 55.6442C192.899 55.7419 195.864 53.437 196.202 53.2333ZM185.94 44.3475C186.599 44.2254 188.543 44.3964 189.749 44.2498C194.032 43.7448 203.016 41.6354 206.97 40.2345C208.215 39.7947 208.882 39.4445 209.943 38.9476C211.028 38.4427 212.691 39.2164 211.678 40.3729C209.87 42.4498 195.936 45.2679 191.685 45.8054C188.431 46.2289 185.024 47.019 185.94 44.3475ZM190.745 43.2562C195.623 41.9937 200.501 40.7232 205.37 39.4607C205.194 37.2698 203.554 34.9486 202.461 34.0038C198.797 30.8274 192.939 32.7903 191.123 36.0726C189.797 38.4915 190.167 40.5603 190.745 43.2562ZM189.805 95.7158C189.612 94.0625 184.108 86.1703 187.836 71.0131C188.142 69.767 188.527 68.529 188.953 67.3562C189.323 66.3299 190.022 64.8965 190.231 63.911C187.443 65.3607 184.662 66.8186 181.874 68.2684C181.03 68.8955 180.612 68.9037 180.492 70.1579C179.905 76.4456 180.572 83.8328 183.384 89.3223C184.188 90.8942 184.935 91.9612 185.924 93.1747C187.37 94.9828 187.957 95.8136 189.805 95.7158Z" fill="#9A817D"/>
<path fill-rule="evenodd" clip-rule="evenodd" d="M32.778 78.7261C32.9548 78.1478 33.1396 77.537 33.3325 76.8936C35.9039 68.5371 40.5165 53.5428 32.3119 50.8714C32.1753 50.8225 32.0146 50.7899 31.8298 50.7574C31.661 50.7329 31.4843 50.7166 31.2914 50.7166C30.5441 50.7166 29.5958 51.523 28.6637 52.6062C28.0369 53.3392 27.4503 54.1863 26.944 55.0333C27.7074 56.8496 28.278 58.7147 28.6155 60.6287C29.0253 62.9743 29.0816 65.3852 28.7119 67.8286C28.5191 69.1236 27.9967 70.3371 27.2976 71.2412C26.7673 71.9335 26.1164 72.4629 25.4012 72.7561C24.5574 73.0981 23.6574 73.1226 22.7654 72.7235C22.1306 72.4466 21.5279 71.9579 20.9895 71.2167C20.0493 69.9299 19.9127 67.8774 20.1779 65.6702C20.5395 62.6404 21.6324 59.1464 22.219 57.5011C22.4681 56.8088 22.8779 55.8885 23.4003 54.8949L23.3922 54.8704C22.8297 53.722 21.769 52.8994 20.5476 52.484C19.8806 52.256 19.1734 52.1501 18.4743 52.1908C17.7913 52.2234 17.1163 52.3863 16.5136 52.6958C9.20103 56.4016 14.7698 76.3234 16.835 82.269C17.7672 84.9405 14.5047 85.2255 13.8457 83.336C11.1457 75.566 5.49654 54.6912 15.0993 49.8207C16.1198 49.3076 17.2207 49.0307 18.3297 48.9737C19.4226 48.9248 20.5235 49.0796 21.552 49.4298C22.9583 49.9103 24.244 50.7492 25.2163 51.8976C25.5539 51.4171 25.9155 50.9447 26.2851 50.513C27.7637 48.7782 29.4914 47.4995 31.3075 47.4995C31.653 47.4995 31.9905 47.5239 32.3119 47.5728C32.6334 47.6217 32.9628 47.7031 33.2923 47.809C44.4942 51.4497 39.279 68.3987 36.37 77.8465C36.1611 78.5306 35.9602 79.1822 35.7834 79.7605C35.2048 81.6745 31.9905 81.3568 32.778 78.7261ZM25.0155 59.0975C24.4529 60.7427 23.6172 63.577 23.3199 66.053C23.1431 67.5353 23.1431 68.7978 23.5288 69.3109C23.7217 69.5715 23.8824 69.7181 24.0271 69.7833C24.0833 69.8077 24.1556 69.8077 24.2199 69.7751C24.4128 69.7018 24.6137 69.5226 24.8065 69.2702C25.1762 68.7896 25.4655 68.1055 25.578 67.3562C25.8914 65.263 25.8431 63.2024 25.4976 61.1907C25.369 60.4821 25.2083 59.7816 25.0155 59.0975Z" fill="#9A817D"/>
<path fill-rule="evenodd" clip-rule="evenodd" d="M35.9524 89.6646C37.0051 90.813 36.9408 93.5007 35.0685 93.4355C32.9149 93.3541 32.1595 89.575 28.5997 89.4365C26.5345 89.3551 25.2809 90.6908 24.9997 91.0247C24.7505 90.6745 23.6014 89.2411 21.5282 89.1678C17.9683 89.0293 16.9317 92.7351 14.7781 92.6537C12.9138 92.5804 13.0504 89.8926 14.1835 88.8257C14.1835 88.8257 12.1263 89.9415 12.0219 92.5641C11.8853 96.1966 15.0353 99.2997 18.3782 99.43C21.5282 99.5522 24.4613 96.6282 24.7907 96.2862C25.0961 96.6527 27.7961 99.7965 30.9542 99.9187C34.3051 100.049 37.6721 97.2065 37.8087 93.5659C37.9292 90.927 35.9524 89.6646 35.9524 89.6646Z" fill="#F7B491" stroke="#F7B491" stroke-width="0.216" stroke-miterlimit="22.9256"/>
<path fill-rule="evenodd" clip-rule="evenodd" d="M10.7094 13.6985C10.5326 10.8316 10.5165 7.77736 10.5567 4.71497C10.5567 4.3729 10.629 4.03082 10.629 3.68875C10.629 2.33674 11.4005 1.59557 12.5576 1.14762C15.2255 0.121392 18.022 -0.122947 20.8184 0.0318009C23.7515 0.186549 26.6926 0.430889 29.5855 1.00101C33.1132 1.70145 36.6489 2.44262 40.032 3.66431C43.0856 4.77199 46.1552 5.93667 48.7267 8.07872C49.7713 8.94205 50.0526 9.98456 49.7151 11.2796C49.0722 13.8044 47.8669 16.1093 47.0231 18.5609C45.5767 22.7391 44.3874 26.9987 43.2543 31.2747C43.0695 31.9833 43.0775 32.7081 43.4713 33.4004C43.7847 33.9461 43.6642 34.5977 43.6481 35.2004C43.64 35.6565 43.7525 35.8601 44.2347 35.6321C44.5561 35.4692 44.9338 35.404 45.2311 35.2085C46.2999 34.5081 47.3767 34.6466 48.4776 35.0864C49.2731 35.4122 49.691 36.2103 49.4981 37.2854C49.1606 39.2076 48.1562 40.6329 46.2677 41.26C44.307 41.9116 42.274 42.1478 40.2409 42.4654C36.8096 43.003 33.3623 43.4265 29.8989 43.7116C26.0417 44.0292 22.2006 43.9478 18.3514 43.4428C15.338 43.0437 12.421 42.327 9.5844 41.2763C6.82812 40.2582 4.26471 38.8411 2.25576 36.5687C1.10665 35.2818 0.423604 33.7588 0.0218144 32.0973C-0.227295 31.0548 0.616462 29.0349 1.50843 28.4648C2.22362 28.0005 2.97095 27.9354 3.78256 28.2693C5.32543 28.9127 6.50669 29.9715 7.6317 31.1281C7.89688 31.3969 8.16206 31.9263 8.49153 31.8204C8.85314 31.6982 8.66832 31.1281 8.7085 30.7534C9.07814 27.6422 9.74511 24.5798 10.1549 21.4848C10.4924 18.9681 10.6371 16.427 10.7094 13.6985Z" fill="#F7B491"/>
<path fill-rule="evenodd" clip-rule="evenodd" d="M49.79 90.259H52.9481V91.8961C52.9481 93.1259 53.366 94.1603 54.2097 95.0155C55.0535 95.8707 56.074 96.2942 57.2874 96.2942C58.5008 96.2942 59.5214 95.8707 60.3651 95.0155C61.2089 94.1603 61.6267 93.1259 61.6267 91.8961V91.6925C61.6267 90.5767 61.2491 89.5993 60.4857 88.7767L52.474 79.9316C50.8427 78.49 50.0311 76.6493 50.0311 74.4095C50.0311 72.3 50.7383 70.5082 52.1445 69.034C53.5508 67.5517 55.2704 66.8105 57.2955 66.8105C59.2964 66.8105 61.008 67.5517 62.4223 69.034C63.8446 70.5164 64.5518 72.3082 64.5518 74.4095V75.8511H61.3937V74.214C61.3937 73.0168 60.9919 71.9824 60.1883 71.1109C59.3848 70.2476 58.4205 69.8078 57.2874 69.8078C56.1303 69.8078 55.1579 70.2394 54.3704 71.1109C53.5829 71.9743 53.1892 73.0086 53.1892 74.214V74.4177C53.1651 75.4846 53.5588 76.4864 54.3704 77.4149L62.3821 86.2111C63.9893 87.7016 64.7928 89.5341 64.7928 91.6925C64.7928 93.8019 64.0616 95.5938 62.5991 97.0761C61.1366 98.5584 59.3687 99.2996 57.2874 99.2996C55.2062 99.2996 53.4383 98.5584 51.9838 97.0761C50.5213 95.5938 49.79 93.8019 49.79 91.6925V90.259ZM69.325 95.0562V71.0539H78.7992V74.0511H72.4831V84.7695H77.8108V87.7667H72.4831V92.0427H78.7992V95.0399H69.325V95.0562ZM83.1385 95.0562V71.0539H86.2966V92.0508H91.6243V95.0481H83.1385V95.0562ZM95.5618 95.0562V71.0539H105.036V74.0511H98.7199V84.7695H104.048V87.7667H98.7199V95.0481H95.5618V95.0562ZM108.395 95.0562V71.0539H117.869V74.0511H111.553V84.7695H116.881V87.7667H111.553V92.0427H117.869V95.0399H108.395V95.0562ZM125.953 95.0562L121.373 71.0539H124.33L127.528 88.1333L130.767 71.0539H133.724L129.103 95.0562H125.953ZM137.637 95.0562V71.0539H147.111V74.0511H140.795V84.7695H146.123V87.7667H140.795V92.0427H147.111V95.0399H137.637V95.0562ZM160.322 95.0562L154.601 79.5406V95.0562H151.443V71.0539H154.601L160.322 86.6917V71.0539H163.48V95.0562H160.322ZM167.032 74.0593V71.0621H176.9V74.0593H173.549V95.0562H170.391V74.0593H167.032Z" fill="#9A817D"/>
<path fill-rule="evenodd" clip-rule="evenodd" d="M44.7433 81.8861C43.8353 73.1143 43.0076 64.5299 41.9227 55.7825C41.7379 54.3246 42.1236 52.8423 42.879 51.5392C45.5469 46.913 54.547 45.4958 56.4916 55.4812C57.4077 60.1806 52.4737 61.5326 52.0398 57.6884C51.9916 57.2974 51.9434 56.3201 51.8469 55.6196C51.6702 54.3328 50.3764 53.2088 49.0987 53.1518C48.8657 53.1436 48.6246 53.1681 48.3835 53.2251C46.704 53.616 46.7442 54.2432 46.6719 55.5382C46.3505 61.215 48.3594 74.45 48.9701 80.8517C49.3317 84.7775 44.9763 84.1096 44.7433 81.8861Z" fill="#F7B491"/>
</g>
<defs>
<clipPath id="clip0">
<rect width="212" height="100" fill="white"/>
</clipPath>
</defs>
</svg>
